<svg width="120" height="120" viewBox="0 0 120 120" fill="none" xmlns="http://www.w3.org/2000/svg">
<g filter="url(#filter0_d_201_1471)">
<circle cx="60" cy="44" r="24" fill="#1F75FF"/>
</g>
<path fill-rule="evenodd" clip-rule="evenodd" d="M47.0362 56.9637C45.4959 55.4234 45.0539 53.0737 45.537 49.9908C43.0155 48.1524 41.6665 46.1785 41.6665 44.0001C41.6665 41.8217 43.0155 39.8478 45.537 38.0094C45.0539 34.9264 45.4959 32.5768 47.0362 31.0365C48.5766 29.4961 50.9262 29.0542 54.0091 29.5373C55.8475 27.0157 57.8214 25.6667 59.9998 25.6667C62.1782 25.6667 64.1521 27.0157 65.9905 29.5373C69.0735 29.0542 71.4231 29.4961 72.9635 31.0365C74.5038 32.5768 74.9457 34.9264 74.4627 38.0094C76.9842 39.8478 78.3332 41.8217 78.3332 44.0001C78.3332 46.1785 76.9842 48.1524 74.4627 49.9908C74.9457 53.0737 74.5038 55.4234 72.9635 56.9637C71.4231 58.5041 69.0735 58.946 65.9905 58.4629C64.1521 60.9844 62.1782 62.3334 59.9998 62.3334C57.8214 62.3334 55.8475 60.9844 54.0091 58.4629C50.9262 58.946 48.5766 58.5041 47.0362 56.9637ZM54.4208 54.9967C55.0974 54.8518 55.7931 55.14 56.169 55.7208C57.6369 57.9889 58.9459 59.0001 59.9998 59.0001C61.0538 59.0001 62.3627 57.9889 63.8307 55.7208C64.2066 55.14 64.9023 54.8518 65.5789 54.9967C68.2206 55.5625 69.8612 55.3519 70.6064 54.6067C71.3517 53.8614 71.5622 52.2208 70.9965 49.5791C70.8516 48.9026 71.1398 48.2069 71.7206 47.8309C73.9886 46.363 74.9998 45.054 74.9998 44.0001C74.9998 42.9461 73.9886 41.6372 71.7206 40.1692C71.1398 39.7933 70.8516 39.0976 70.9965 38.4211C71.5622 35.7793 71.3517 34.1387 70.6064 33.3935C69.8612 32.6482 68.2206 32.4377 65.5789 33.0034C64.9023 33.1483 64.2066 32.8602 63.8307 32.2793C62.3627 30.0113 61.0538 29.0001 59.9998 29.0001C58.9459 29.0001 57.6369 30.0113 56.169 32.2793C55.7931 32.8602 55.0974 33.1483 54.4208 33.0034C51.7791 32.4377 50.1385 32.6482 49.3932 33.3935C48.648 34.1387 48.4374 35.7793 49.0032 38.4211C49.1481 39.0976 48.8599 39.7933 48.2791 40.1692C46.011 41.6372 44.9998 42.9461 44.9998 44.0001C44.9998 45.054 46.011 46.363 48.2791 47.8309C48.8599 48.2069 49.1481 48.9026 49.0032 49.5791C48.4374 52.2208 48.648 53.8614 49.3932 54.6067C50.1385 55.3519 51.7791 55.5625 54.4208 54.9967ZM65.488 37.8216L58.3332 44.9764L54.5117 41.1549L52.1547 43.5119L58.3332 49.6904L67.845 40.1786L65.488 37.8216Z" fill="#EBF3FF"/>
<defs>
<filter id="filter0_d_201_1471" x="0" y="0" width="120" height="120" filterUnits="userSpaceOnUse" color-interpolation-filters="sRGB">
<feFlood flood-opacity="0" result="BackgroundImageFix"/>
<feColorMatrix in="SourceAlpha" type="matrix" values="0 0 0 0 0 0 0 0 0 0 0 0 0 0 0 0 0 0 127 0" result="hardAlpha"/>
<feOffset dy="16"/>
<feGaussianBlur stdDeviation="18"/>
<feColorMatrix type="matrix" values="0 0 0 0 0.491667 0 0 0 0 0.491667 0 0 0 0 0.491667 0 0 0 0.25 0"/>
<feBlend mode="normal" in2="BackgroundImageFix" result="effect1_dropShadow_201_1471"/>
<feBlend mode="normal" in="SourceGraphic" in2="effect1_dropShadow_201_1471" result="shape"/>
</filter>
</defs>
</svg>
